<svg width="1600" height="960" viewBox="0 0 1600 960" fill="none" xmlns="http://www.w3.org/2000/svg">
  <rect width="1600" height="960" fill="#EDEEEF"/>
  <rect x="108" y="86" width="1384" height="788" rx="36" fill="#F8F9FA"/>
  <rect x="196" y="148" width="168" height="600" rx="24" fill="#D3E4FF"/>
  <rect x="406" y="148" width="168" height="600" rx="24" fill="#E1E3E4"/>
  <rect x="616" y="148" width="168" height="600" rx="24" fill="#D3E4FF"/>
  <rect x="826" y="148" width="168" height="600" rx="24" fill="#E1E3E4"/>
  <rect x="1036" y="148" width="168" height="600" rx="24" fill="#D3E4FF"/>
  <rect x="1246" y="148" width="168" height="600" rx="24" fill="#E1E3E4"/>
  <rect x="252" y="220" width="56" height="238" rx="28" fill="#0060A8"/>
  <rect x="462" y="208" width="56" height="268" rx="28" fill="#404753"/>
  <rect x="672" y="214" width="56" height="260" rx="28" fill="#0095FF"/>
  <rect x="882" y="198" width="56" height="282" rx="28" fill="#707884"/>
  <rect x="1092" y="212" width="56" height="252" rx="28" fill="#0060A8"/>
  <rect x="1302" y="224" width="56" height="236" rx="28" fill="#404753"/>
  <circle cx="1270" cy="250" r="124" fill="#D3E4FF" fill-opacity="0.65"/>
  <circle cx="1346" cy="336" r="92" fill="#00FAE2" fill-opacity="0.18"/>
</svg>
